<?xml version="1.0" standalone="no"?>
<!DOCTYPE svg PUBLIC "-//W3C//DTD SVG 20010904//EN"
 "http://www.w3.org/TR/2001/REC-SVG-20010904/DTD/svg10.dtd">
<svg version="1.0" xmlns="http://www.w3.org/2000/svg"
 width="743.000000pt" height="743.000000pt" viewBox="0 0 743.000000 743.000000"
 preserveAspectRatio="xMidYMid meet">
<metadata>
Created by potrace 1.11, written by Peter Selinger 2001-2013
</metadata>
<g transform="translate(0.000000,743.000000) scale(0.100000,-0.100000)"
fill="#000000" stroke="none">
<path d="M3539 7426 c-2 -2 -65 -7 -139 -11 -74 -4 -137 -8 -140 -10 -3 -2
-23 -6 -45 -9 -22 -4 -69 -11 -105 -17 -51 -8 -246 -48 -305 -63 -141 -35
-422 -131 -535 -183 -36 -16 -67 -29 -70 -29 -16 2 -370 -187 -451 -241 -23
-16 -49 -33 -58 -38 -58 -37 -160 -108 -182 -127 -15 -13 -73 -59 -130 -103
-57 -44 -173 -150 -259 -235 -198 -197 -310 -331 -485 -578 -9 -12 -20 -20
-26 -17 -5 4 -14 -6 -20 -22 -18 -48 -42 -95 -94 -188 -83 -148 -173 -340
-236 -505 -33 -85 -64 -166 -70 -178 -10 -25 -67 -238 -75 -282 -3 -14 -11
-50 -19 -80 -11 -49 -17 -79 -30 -155 -30 -171 -34 -201 -42 -291 -9 -113 -12
-544 -3 -609 5 -33 11 -98 15 -145 3 -46 8 -87 10 -90 1 -3 6 -29 9 -59 4 -30
9 -64 11 -75 2 -12 7 -39 10 -61 10 -69 84 -356 117 -450 158 -460 366 -841
641 -1180 113 -138 147 -176 266 -295 128 -127 145 -143 264 -244 94 -79 395
-296 412 -296 3 0 46 -25 97 -56 76 -46 298 -160 383 -195 81 -34 271 -105
320 -119 33 -10 100 -29 149 -44 48 -14 98 -28 110 -30 11 -3 53 -11 91 -20
124 -26 271 -50 390 -61 39 -4 79 -9 90 -12 41 -9 483 -11 560 -3 44 4 112 11
150 14 39 4 102 11 140 16 39 6 84 12 100 14 60 8 313 69 425 103 131 39 363
124 430 157 25 12 104 51 175 86 185 91 293 156 535 325 67 46 126 92 160 124
14 13 52 46 85 75 143 123 355 345 495 520 166 207 356 537 479 831 23 55 46
109 51 120 35 73 148 467 164 569 4 21 8 48 11 60 5 24 13 65 21 116 3 19 7
42 9 50 2 8 7 53 11 100 3 47 8 94 11 105 2 11 5 124 7 250 3 208 -2 349 -19
490 -3 28 -8 70 -11 95 -3 24 -7 47 -9 50 -2 4 -7 29 -10 56 -22 161 -122 527
-194 709 -141 352 -282 603 -506 902 -188 250 -476 539 -718 721 -123 92 -180
131 -332 227 -66 42 -354 190 -425 219 -25 10 -63 26 -85 36 -22 9 -58 23 -80
30 -22 7 -49 16 -60 21 -137 57 -501 150 -678 174 -27 4 -57 8 -66 10 -10 2
-51 6 -92 10 -41 4 -87 9 -104 11 -39 6 -490 15 -496 10z"/>
</g>
</svg>
